<svg height="35" viewBox="0 0 35 35" width="35"><path d="m17.500224 0a17.5 17.5 0 0 0 -17.500224 17.499708 17.5 17.5 0 0 0 14.632183 17.263028l-.03876-12.281421-4.370276-.04134v-4.610571h4.355809l-.01241-3.942395s-1.205169-6.414601 7.416601-6.414595c2.672697 0 3.073715.267684 3.073715.267684l.267166 4.342887-2.672705.06666s-2.205032-.200083-2.205032 2.071709c0 .389443-.0081 2.426338-.01138 3.608049h4.55476l-.734838 4.743897-3.834908-.03669c-.01855 5.695323-.03719 11.715798-.03876 12.224575a17.5 17.5 0 0 0 14.618754-17.261477 17.5 17.5 0 0 0 -17.499708-17.499708z"/></svg>